<?xml version="1.0" encoding="UTF-8" standalone="no"?>
<!DOCTYPE svg PUBLIC "-//W3C//DTD SVG 1.1//EN"
 "http://www.w3.org/Graphics/SVG/1.1/DTD/svg11.dtd">
<!-- Generated by graphviz version 14.1.3 (0)
 -->
<!-- Title: ClientArchitecture Pages: 1 -->
<svg width="1860pt" height="755pt"
 viewBox="0.00 0.00 1860.00 755.00" xmlns="http://www.w3.org/2000/svg" xmlns:xlink="http://www.w3.org/1999/xlink">
<g id="graph0" class="graph" transform="scale(1 1) rotate(0) translate(57.6 697.6)">
<title>ClientArchitecture</title>
<polygon fill="#0d1117" stroke="none" points="-57.6,57.6 -57.6,-697.6 1802.42,-697.6 1802.42,57.6 -57.6,57.6"/>
<text xml:space="preserve" text-anchor="start" x="668.79" y="-613.6" font-family="Inter, Helvetica, Arial, sans-serif" font-weight="bold" font-size="26.00" fill="#e6edf3">PingPilot — High&#45;Level Architecture</text>
<text xml:space="preserve" text-anchor="start" x="701.52" y="-598.4" font-family="Inter, Helvetica, Arial, sans-serif" font-size="14.00" fill="#7d8590">WhatsApp Business Automation Platform (Client Overview)</text>
<g id="clust1" class="cluster">
<title>cluster_platform</title>
<path fill="#0d1117" stroke="#30363d" stroke-dasharray="5,2" d="M372.97,-336C372.97,-336 1359.72,-336 1359.72,-336 1365.72,-336 1371.72,-342 1371.72,-348 1371.72,-348 1371.72,-572 1371.72,-572 1371.72,-578 1365.72,-584 1359.72,-584 1359.72,-584 372.97,-584 372.97,-584 366.97,-584 360.97,-578 360.97,-572 360.97,-572 360.97,-348 360.97,-348 360.97,-342 366.97,-336 372.97,-336"/>
<text xml:space="preserve" text-anchor="start" x="768.35" y="-564.8" font-family="Inter, Helvetica, Arial, sans-serif" font-weight="bold" font-size="18.00" fill="#e6edf3">PingPilot Cloud Platform</text>
</g>
<g id="clust2" class="cluster">
<title>cluster_integrations</title>
<path fill="#0d1117" stroke="#30363d" stroke-dasharray="5,2" d="M1138.33,-8C1138.33,-8 1368.55,-8 1368.55,-8 1374.55,-8 1380.55,-14 1380.55,-20 1380.55,-20 1380.55,-316 1380.55,-316 1380.55,-322 1374.55,-328 1368.55,-328 1368.55,-328 1138.33,-328 1138.33,-328 1132.33,-328 1126.33,-322 1126.33,-316 1126.33,-316 1126.33,-20 1126.33,-20 1126.33,-14 1132.33,-8 1138.33,-8"/>
<text xml:space="preserve" text-anchor="start" x="1175.2" y="-308.8" font-family="Inter, Helvetica, Arial, sans-serif" font-weight="bold" font-size="18.00" fill="#e6edf3">Official Integrations</text>
</g>
<!-- tenant -->
<g id="node1" class="node">
<title>tenant</title>
<ellipse fill="#1f2937" stroke="#58a6ff" stroke-width="1.5" cx="101.77" cy="-424" rx="101.77" ry="101.77"/>
<text xml:space="preserve" text-anchor="middle" x="101.77" y="-434.8" font-family="Inter, Helvetica, Arial, sans-serif" font-size="12.00" fill="#e6edf3">🧑‍💼</text>
<text xml:space="preserve" text-anchor="middle" x="101.77" y="-420.4" font-family="Inter, Helvetica, Arial, sans-serif" font-size="12.00" fill="#e6edf3">You</text>
<text xml:space="preserve" text-anchor="middle" x="101.77" y="-406" font-family="Inter, Helvetica, Arial, sans-serif" font-size="12.00" fill="#e6edf3">(Business Owner)</text>
</g>
<!-- dashboard -->
<g id="node3" class="node">
<title>dashboard</title>
<path fill="#0d1117" stroke="#1f6feb" stroke-width="1.5" d="M544.21,-481.4C544.21,-481.4 402.97,-481.4 402.97,-481.4 396.97,-481.4 390.97,-475.4 390.97,-469.4 390.97,-469.4 390.97,-378.6 390.97,-378.6 390.97,-372.6 396.97,-366.6 402.97,-366.6 402.97,-366.6 544.21,-366.6 544.21,-366.6 550.21,-366.6 556.21,-372.6 556.21,-378.6 556.21,-378.6 556.21,-469.4 556.21,-469.4 556.21,-475.4 550.21,-481.4 544.21,-481.4"/>
<text xml:space="preserve" text-anchor="middle" x="473.59" y="-449" font-family="Inter, Helvetica, Arial, sans-serif" font-size="12.00" fill="#e6edf3">🖥️ Web Dashboard</text>
<text xml:space="preserve" text-anchor="middle" x="473.59" y="-420.6" font-family="Inter, Helvetica, Arial, sans-serif" font-size="12.00" fill="#e6edf3">• Manage Campaigns</text>
<text xml:space="preserve" text-anchor="middle" x="473.59" y="-406.2" font-family="Inter, Helvetica, Arial, sans-serif" font-size="12.00" fill="#e6edf3">• Configure Chatbots</text>
<text xml:space="preserve" text-anchor="middle" x="473.59" y="-391.8" font-family="Inter, Helvetica, Arial, sans-serif" font-size="12.00" fill="#e6edf3">• View Analytics</text>
</g>
<!-- tenant&#45;&gt;dashboard -->
<g id="edge1" class="edge">
<title>tenant&#45;&gt;dashboard</title>
<path fill="none" stroke="#58a6ff" stroke-width="1.5" d="M203.82,-424C258.53,-424 325.66,-424 379.14,-424"/>
<polygon fill="#58a6ff" stroke="#58a6ff" stroke-width="1.5" points="379.07,-427.15 388.07,-424 379.07,-420.85 379.07,-427.15"/>
<text xml:space="preserve" text-anchor="middle" x="297.25" y="-427.3" font-family="Inter, Helvetica, Arial, sans-serif" font-size="11.00" fill="#8b949e"> 1. Log in &amp; Configure</text>
</g>
<!-- customer -->
<g id="node2" class="node">
<title>customer</title>
<ellipse fill="#1a4d2e" stroke="#3fb950" stroke-width="1.5" cx="1644" cy="-225" rx="100.81" ry="100.81"/>
<text xml:space="preserve" text-anchor="middle" x="1644" y="-235.8" font-family="Inter, Helvetica, Arial, sans-serif" font-size="12.00" fill="#e6edf3">📱</text>
<text xml:space="preserve" text-anchor="middle" x="1644" y="-221.4" font-family="Inter, Helvetica, Arial, sans-serif" font-size="12.00" fill="#e6edf3">Your Customer</text>
<text xml:space="preserve" text-anchor="middle" x="1644" y="-207" font-family="Inter, Helvetica, Arial, sans-serif" font-size="12.00" fill="#e6edf3">(WhatsApp User)</text>
</g>
<!-- core_engine -->
<g id="node4" class="node">
<title>core_engine</title>
<path fill="#161b22" stroke="#da3633" stroke-width="1.5" d="M907.71,-480.4C907.71,-480.4 746.46,-480.4 746.46,-480.4 740.46,-480.4 734.46,-474.4 734.46,-468.4 734.46,-468.4 734.46,-377.6 734.46,-377.6 734.46,-371.6 740.46,-365.6 746.46,-365.6 746.46,-365.6 907.71,-365.6 907.71,-365.6 913.71,-365.6 919.71,-371.6 919.71,-377.6 919.71,-377.6 919.71,-468.4 919.71,-468.4 919.71,-474.4 913.71,-480.4 907.71,-480.4"/>
<text xml:space="preserve" text-anchor="middle" x="827.09" y="-448" font-family="Inter, Helvetica, Arial, sans-serif" font-size="12.00" fill="#e6edf3">⚙️ Core Engine</text>
<text xml:space="preserve" text-anchor="middle" x="827.09" y="-419.6" font-family="Inter, Helvetica, Arial, sans-serif" font-size="12.00" fill="#e6edf3">• Message Routing</text>
<text xml:space="preserve" text-anchor="middle" x="827.09" y="-405.2" font-family="Inter, Helvetica, Arial, sans-serif" font-size="12.00" fill="#e6edf3">• Background Scheduling</text>
<text xml:space="preserve" text-anchor="middle" x="827.09" y="-390.8" font-family="Inter, Helvetica, Arial, sans-serif" font-size="12.00" fill="#e6edf3">• Rate Limiting &amp; Safety</text>
</g>
<!-- dashboard&#45;&gt;core_engine -->
<g id="edge2" class="edge">
<title>dashboard&#45;&gt;core_engine</title>
<path fill="none" stroke="#58a6ff" stroke-width="1.5" d="M556.56,-423.77C606.08,-423.63 669.66,-423.45 722.63,-423.29"/>
<polygon fill="#58a6ff" stroke="#58a6ff" stroke-width="1.5" points="722.5,-426.44 731.49,-423.27 722.48,-420.14 722.5,-426.44"/>
<text xml:space="preserve" text-anchor="middle" x="645.34" y="-440.12" font-family="Inter, Helvetica, Arial, sans-serif" font-size="11.00" fill="#8b949e"> 2. Send Instructions</text>
<text xml:space="preserve" text-anchor="middle" x="645.34" y="-426.92" font-family="Inter, Helvetica, Arial, sans-serif" font-size="11.00" fill="#8b949e">&amp; Create Campaigns</text>
</g>
<!-- secure_db -->
<g id="node5" class="node">
<title>secure_db</title>
<path fill="#1c1437" stroke="#8957e5" stroke-width="1.5" d="M1341.72,-509.57C1341.72,-517.49 1302.15,-523.92 1253.44,-523.92 1204.73,-523.92 1165.16,-517.49 1165.16,-509.57 1165.16,-509.57 1165.16,-380.43 1165.16,-380.43 1165.16,-372.51 1204.73,-366.08 1253.44,-366.08 1302.15,-366.08 1341.72,-372.51 1341.72,-380.43 1341.72,-380.43 1341.72,-509.57 1341.72,-509.57"/>
<path fill="none" stroke="#8957e5" stroke-width="1.5" d="M1341.72,-509.57C1341.72,-501.66 1302.15,-495.23 1253.44,-495.23 1204.73,-495.23 1165.16,-501.66 1165.16,-509.57"/>
<text xml:space="preserve" text-anchor="middle" x="1253.44" y="-470" font-family="Inter, Helvetica, Arial, sans-serif" font-size="12.00" fill="#e6edf3">🔒 Secure Database</text>
<text xml:space="preserve" text-anchor="middle" x="1253.44" y="-441.6" font-family="Inter, Helvetica, Arial, sans-serif" font-size="12.00" fill="#e6edf3">• Encrypted Credentials</text>
<text xml:space="preserve" text-anchor="middle" x="1253.44" y="-427.2" font-family="Inter, Helvetica, Arial, sans-serif" font-size="12.00" fill="#e6edf3">• Customer Contacts</text>
<text xml:space="preserve" text-anchor="middle" x="1253.44" y="-412.8" font-family="Inter, Helvetica, Arial, sans-serif" font-size="12.00" fill="#e6edf3">• Message History</text>
</g>
<!-- core_engine&#45;&gt;secure_db -->
<g id="edge3" class="edge">
<title>core_engine&#45;&gt;secure_db</title>
<path fill="none" stroke="#58a6ff" stroke-width="1.5" d="M931.24,-428.35C998.92,-431.86 1086.92,-436.42 1153.69,-439.88"/>
<polygon fill="#58a6ff" stroke="#58a6ff" stroke-width="1.5" points="931.84,-425.23 922.69,-427.9 931.52,-431.52 931.84,-425.23"/>
<polygon fill="#58a6ff" stroke="#58a6ff" stroke-width="1.5" points="1153.22,-443.01 1162.37,-440.33 1153.55,-436.72 1153.22,-443.01"/>
<text xml:space="preserve" text-anchor="middle" x="1038.02" y="-440.56" font-family="Inter, Helvetica, Arial, sans-serif" font-size="11.00" fill="#8b949e"> 3. Store/Retrieve Secure Data</text>
</g>
<!-- whatsapp_api -->
<g id="node6" class="node">
<title>whatsapp_api</title>
<polygon fill="#1a4d2e" stroke="#3fb950" stroke-width="1.5" points="1350.55,-268 1156.33,-268 1156.33,-264 1152.33,-264 1152.33,-260 1156.33,-260 1156.33,-190 1152.33,-190 1152.33,-186 1156.33,-186 1156.33,-182 1350.55,-182 1350.55,-268"/>
<polyline fill="none" stroke="#3fb950" stroke-width="1.5" points="1156.33,-264 1160.33,-264 1160.33,-260 1156.33,-260"/>
<polyline fill="none" stroke="#3fb950" stroke-width="1.5" points="1156.33,-190 1160.33,-190 1160.33,-186 1156.33,-186"/>
<text xml:space="preserve" text-anchor="middle" x="1253.44" y="-235.6" font-family="Inter, Helvetica, Arial, sans-serif" font-size="12.00" fill="#e6edf3">💬 Meta Cloud API</text>
<text xml:space="preserve" text-anchor="middle" x="1253.44" y="-207.2" font-family="Inter, Helvetica, Arial, sans-serif" font-size="12.00" fill="#e6edf3">Official WhatsApp Network</text>
</g>
<!-- core_engine&#45;&gt;whatsapp_api -->
<g id="edge5" class="edge">
<title>core_engine&#45;&gt;whatsapp_api</title>
<path fill="none" stroke="#3fb950" stroke-width="1.5" d="M930.52,-375.21C996.64,-344.35 1082.39,-304.34 1148.76,-273.38"/>
<polygon fill="#3fb950" stroke="#3fb950" stroke-width="1.5" points="929.31,-372.29 922.48,-378.95 931.97,-378 929.31,-372.29"/>
<polygon fill="#3fb950" stroke="#3fb950" stroke-width="1.5" points="1149.94,-276.3 1156.76,-269.64 1147.28,-270.59 1149.94,-276.3"/>
<text xml:space="preserve" text-anchor="middle" x="1038.02" y="-362.26" font-family="Inter, Helvetica, Arial, sans-serif" font-size="11.00" fill="#8b949e"> 5. Send/Receive WhatsApp Msgs</text>
</g>
<!-- openai_api -->
<g id="node7" class="node">
<title>openai_api</title>
<polygon fill="#1a2744" stroke="#58a6ff" stroke-width="1.5" points="1340.39,-124 1166.48,-124 1166.48,-120 1162.48,-120 1162.48,-116 1166.48,-116 1166.48,-46 1162.48,-46 1162.48,-42 1166.48,-42 1166.48,-38 1340.39,-38 1340.39,-124"/>
<polyline fill="none" stroke="#58a6ff" stroke-width="1.5" points="1166.48,-120 1170.48,-120 1170.48,-116 1166.48,-116"/>
<polyline fill="none" stroke="#58a6ff" stroke-width="1.5" points="1166.48,-46 1170.48,-46 1170.48,-42 1166.48,-42"/>
<text xml:space="preserve" text-anchor="middle" x="1253.44" y="-91.6" font-family="Inter, Helvetica, Arial, sans-serif" font-size="12.00" fill="#e6edf3">🧠 OpenAI / ChatGPT</text>
<text xml:space="preserve" text-anchor="middle" x="1253.44" y="-63.2" font-family="Inter, Helvetica, Arial, sans-serif" font-size="12.00" fill="#e6edf3">Intelligent Auto&#45;Replies</text>
</g>
<!-- core_engine&#45;&gt;openai_api -->
<g id="edge4" class="edge">
<title>core_engine&#45;&gt;openai_api</title>
<path fill="none" stroke="#58a6ff" stroke-width="1.5" d="M908.65,-358.07C990.43,-292.16 1115.32,-191.5 1189.92,-131.38"/>
<polygon fill="#58a6ff" stroke="#58a6ff" stroke-width="1.5" points="906.87,-355.46 901.84,-363.56 910.82,-360.36 906.87,-355.46"/>
<polygon fill="#58a6ff" stroke="#58a6ff" stroke-width="1.5" points="1191.52,-134.14 1196.55,-126.04 1187.57,-129.24 1191.52,-134.14"/>
<text xml:space="preserve" text-anchor="middle" x="1038.02" y="-271.1" font-family="Inter, Helvetica, Arial, sans-serif" font-size="11.00" fill="#8b949e"> 4. Request Smart AI Replies</text>
</g>
<!-- whatsapp_api&#45;&gt;customer -->
<g id="edge6" class="edge">
<title>whatsapp_api&#45;&gt;customer</title>
<path fill="none" stroke="#3fb950" stroke-width="1.5" d="M1362.35,-225C1415.03,-225 1478.34,-225 1531.49,-225"/>
<polygon fill="#3fb950" stroke="#3fb950" stroke-width="1.5" points="1362.51,-221.85 1353.51,-225 1362.51,-228.15 1362.51,-221.85"/>
<polygon fill="#3fb950" stroke="#3fb950" stroke-width="1.5" points="1531.4,-228.15 1540.4,-225 1531.4,-221.85 1531.4,-228.15"/>
<text xml:space="preserve" text-anchor="middle" x="1446.87" y="-228.3" font-family="Inter, Helvetica, Arial, sans-serif" font-size="11.00" fill="#8b949e"> 6. Chat with Customers</text>
</g>
</g>
</svg>
